<svg version="1.1" xmlns="http://www.w3.org/2000/svg" xmlns:xlink="http://www.w3.org/1999/xlink" viewBox="0 0 172 172"><g fill="none" fill-rule="nonzero" stroke="none" stroke-width="1" stroke-linecap="butt" stroke-linejoin="miter" stroke-miterlimit="10" stroke-dasharray="" stroke-dashoffset="0" font-family="none" font-weight="none" font-size="none" text-anchor="none" style="mix-blend-mode: normal"><path d="M0,172v-172h172v172z" fill="none"></path><g><path d="M2.65391,86c0,-46.02344 37.32266,-83.34609 83.34609,-83.34609c46.02344,0 83.34609,37.32266 83.34609,83.34609c0,46.02344 -37.32266,83.34609 -83.34609,83.34609c-46.02344,0 -83.34609,-37.32266 -83.34609,-83.34609z" fill="#e74c3c"></path><path d="M77.73594,86.90703c10.31328,-10.31328 20.62656,-20.62656 30.93984,-30.93984c9.00312,-9.00313 -5.00547,-22.91094 -14.04219,-13.87422c-12.63125,12.63125 -25.2625,25.2625 -37.89375,37.89375c-3.82969,3.82969 -3.69531,10.17891 0.06719,13.94141c12.63125,12.63125 25.2625,25.2625 37.89375,37.89375c9.00313,9.00313 22.91094,-5.00547 13.87422,-14.04219c-10.27969,-10.31328 -20.55938,-20.59297 -30.83906,-30.87266z" fill="#ffffff"></path></g></g></svg>