<svg version="1.1" xmlns="http://www.w3.org/2000/svg" xmlns:xlink="http://www.w3.org/1999/xlink" viewBox="0 0 172 172"><g fill="none" fill-rule="nonzero" stroke="none" stroke-width="1" stroke-linecap="butt" stroke-linejoin="miter" stroke-miterlimit="10" stroke-dasharray="" stroke-dashoffset="0" font-family="none" font-weight="none" font-size="none" text-anchor="none" style="mix-blend-mode: normal"><path d="M0,172v-172h172v172z" fill="none"></path><g><path d="M150.5,132.58333c0,10.03333 -7.88333,17.91667 -17.91667,17.91667h-93.16667c-10.03333,0 -17.91667,-7.88333 -17.91667,-17.91667v-93.16667c0,-10.03333 7.88333,-17.91667 17.91667,-17.91667h93.16667c10.03333,0 17.91667,7.88333 17.91667,17.91667z" fill="#e74c3c"></path><path d="M93.16667,118.25h-14.33333v-39.41667h14.33333zM94.95833,59.125c0,-5.01667 -3.94167,-8.95833 -8.95833,-8.95833c-5.01667,0 -8.95833,3.94167 -8.95833,8.95833c0,5.01667 3.94167,8.95833 8.95833,8.95833c5.01667,0 8.95833,-3.94167 8.95833,-8.95833" fill="#ffffff"></path></g></g></svg>