<svg version="1.1" xmlns="http://www.w3.org/2000/svg" xmlns:xlink="http://www.w3.org/1999/xlink" viewBox="0 0 172 172"><defs><linearGradient x1="86" y1="150.5" x2="86" y2="22.24175" gradientUnits="userSpaceOnUse" id="color-1"><stop offset="0" stop-color="#e74c3c"></stop><stop offset="0.258" stop-color="#e74c3c"></stop><stop offset="0.775" stop-color="#e74c3c"></stop><stop offset="1" stop-color="#e74c3c"></stop></linearGradient></defs><g fill="none" fill-rule="nonzero" stroke="none" stroke-width="1" stroke-linecap="butt" stroke-linejoin="miter" stroke-miterlimit="10" stroke-dasharray="" stroke-dashoffset="0" font-family="none" font-weight="none" font-size="none" text-anchor="none" style="mix-blend-mode: normal"><path d="M0,172v-172h172v172z" fill="none"></path><g><path d="M121.83333,150.5h-71.66667c-15.80608,0 -28.66667,-12.86058 -28.66667,-28.66667v-71.66667c0,-15.80608 12.86058,-28.66667 28.66667,-28.66667h71.66667c15.80608,0 28.66667,12.86058 28.66667,28.66667v71.66667c0,15.80608 -12.86058,28.66667 -28.66667,28.66667z" fill="url(#color-1)"></path><path d="M121.83333,57.33333c0.63783,0 1.24342,0.11108 1.83467,0.26517l-28.036,28.03958c-2.65883,2.65525 -6.14542,3.98108 -9.632,3.98108c-3.48658,0 -6.97317,-1.32583 -9.632,-3.98108l-28.036,-28.03958c0.59125,-0.15408 1.19683,-0.26517 1.83467,-0.26517h71.66667M128.73483,62.66533c0.15408,0.59125 0.26517,1.19683 0.26517,1.83467v43c0,0.63783 -0.11108,1.24342 -0.26517,1.83467l-23.33467,-23.33467l23.33467,-23.33467M43.26517,62.66533l23.33467,23.33467l-23.33108,23.33108c-0.15767,-0.58767 -0.26875,-1.19325 -0.26875,-1.83108v-43c0,-0.63783 0.11108,-1.24342 0.26517,-1.83467M100.2975,91.031l23.3705,23.3705c-0.59125,0.15408 -1.19683,0.26517 -1.83467,0.26517h-71.66667c-0.63783,0 -1.24342,-0.11108 -1.83467,-0.26517l23.3705,-23.3705c4.00258,3.80908 9.1375,5.75125 14.2975,5.75125c5.16,0 10.29492,-1.94217 14.2975,-5.75125M121.83333,53.75h-71.66667c-0.87433,0 -1.77375,0.12542 -2.752,0.387c-1.23983,0.32967 -2.20733,1.29358 -2.54058,2.53342c-0.32967,1.22192 0.01075,2.52267 0.88867,3.42567c-0.67725,-0.65575 -1.57667,-1.01408 -2.49758,-1.01408c-0.31175,0 -0.6235,0.03942 -0.93167,0.12183c-1.23625,0.33325 -2.20375,1.30075 -2.53342,2.54058c-0.258,0.98183 -0.38342,1.88125 -0.38342,2.75558v43c0,0.87433 0.12542,1.77375 0.387,2.752c0.32967,1.23983 1.29358,2.20733 2.53342,2.54058c0.30817,0.08242 0.61992,0.12183 0.93167,0.12183c0.92092,0 1.82033,-0.35475 2.494,-1.0105c-0.87792,0.90658 -1.21833,2.20733 -0.88867,3.42567c0.33325,1.23625 1.30075,2.20375 2.54058,2.53342c0.97825,0.26158 1.87767,0.387 2.752,0.387h71.66667c0.87433,0 1.77375,-0.12542 2.752,-0.387c1.23983,-0.32967 2.20733,-1.29358 2.54058,-2.53342c0.32967,-1.22192 -0.01075,-2.52267 -0.88867,-3.42567c0.67725,0.65575 1.57667,1.0105 2.494,1.0105c0.31175,0 0.6235,-0.03942 0.93167,-0.12183c1.23625,-0.33325 2.20375,-1.30075 2.53342,-2.54058c0.26158,-0.97825 0.387,-1.87767 0.387,-2.752v-43c0,-0.87433 -0.12542,-1.77375 -0.387,-2.752c-0.32967,-1.23983 -1.29358,-2.20733 -2.53342,-2.54058c-0.30817,-0.08242 -0.61992,-0.12183 -0.93167,-0.12183c-0.92092,0 -1.82033,0.35475 -2.49758,1.0105c0.87792,-0.90658 1.21833,-2.20733 0.88867,-3.42567c-0.33325,-1.23625 -1.30075,-2.20375 -2.54058,-2.53342c-0.97467,-0.26158 -1.87408,-0.387 -2.74842,-0.387z" fill="#000000" opacity="0.05"></path><path d="M121.83333,55.54167h-71.66667c-0.72742,0 -1.45483,0.10392 -2.29333,0.32608c-0.61992,0.16483 -1.10367,0.64858 -1.2685,1.26492c-0.16483,0.61992 0.01075,1.27925 0.46225,1.73075l28.036,28.03958c2.90608,2.90608 6.77608,4.50783 10.89692,4.50783c4.12083,0 7.99083,-1.60175 10.89692,-4.50425l28.036,-28.03958c0.4515,-0.4515 0.63067,-1.11442 0.46225,-1.73075c-0.16483,-0.61992 -0.65217,-1.10008 -1.2685,-1.26492c-0.8385,-0.22575 -1.56592,-0.32967 -2.29333,-0.32967zM128.73483,60.87367c-0.46942,0 -0.92808,0.18275 -1.2685,0.52317l-23.33108,23.33467c-0.69875,0.69875 -0.69875,1.83467 0,2.53342l23.33108,23.33108c0.34042,0.34042 0.79908,0.52317 1.2685,0.52317c0.15408,0 0.31175,-0.0215 0.46583,-0.06092c0.61992,-0.16483 1.10008,-0.65217 1.26492,-1.2685c0.22217,-0.83492 0.32608,-1.56233 0.32608,-2.28975v-43c0,-0.72742 -0.10392,-1.45483 -0.32608,-2.29333c-0.16483,-0.61992 -0.64858,-1.10367 -1.26492,-1.2685c-0.15408,-0.043 -0.31175,-0.0645 -0.46583,-0.0645zM43.26517,60.87367c-0.15408,0 -0.31175,0.0215 -0.46583,0.06092c-0.61992,0.16483 -1.10008,0.65217 -1.26492,1.2685c-0.22217,0.84208 -0.32608,1.5695 -0.32608,2.29692v43c0,0.72742 0.10392,1.45483 0.32608,2.29333c0.16483,0.61992 0.64858,1.10367 1.26492,1.2685c0.15408,0.043 0.31175,0.06092 0.46583,0.06092c0.46942,0 0.92808,-0.18275 1.2685,-0.52317l23.33108,-23.33108c0.69875,-0.69875 0.69875,-1.83467 0,-2.53342l-23.33108,-23.33467c-0.34042,-0.34042 -0.79908,-0.52675 -1.2685,-0.52675zM100.2975,89.23933c-0.44433,0 -0.88867,0.16483 -1.23625,0.4945c-3.56542,3.38983 -8.20225,5.25675 -13.06125,5.25675c-4.859,0 -9.49942,-1.86692 -13.06125,-5.25675c-0.34758,-0.32967 -0.79192,-0.4945 -1.23625,-0.4945c-0.45867,0 -0.91733,0.17558 -1.2685,0.52317l-23.3705,23.3705c-0.4515,0.4515 -0.63067,1.11442 -0.46225,1.73075c0.16842,0.61633 0.65217,1.10008 1.2685,1.26492c0.84208,0.22575 1.5695,0.32967 2.29692,0.32967h71.66667c0.72742,0 1.45483,-0.10392 2.29333,-0.32608c0.61992,-0.16483 1.10367,-0.64858 1.2685,-1.26492c0.16483,-0.61633 -0.01075,-1.27925 -0.46225,-1.73075l-23.3705,-23.3705c-0.34758,-0.35117 -0.80625,-0.52675 -1.26492,-0.52675z" fill="#000000" opacity="0.07"></path><path d="M128.73483,62.66533l-23.33467,23.33467l23.33108,23.33108c0.15767,-0.58767 0.26875,-1.19325 0.26875,-1.83108v-43c0,-0.63783 -0.11108,-1.24342 -0.26517,-1.83467zM95.632,85.63808l28.036,-28.03958c-0.59125,-0.15408 -1.19683,-0.26517 -1.83467,-0.26517h-71.66667c-0.63783,0 -1.24342,0.11108 -1.83467,0.26517l28.036,28.03958c5.31408,5.30692 13.94992,5.30692 19.264,0zM43.26517,62.66533c-0.15408,0.59125 -0.26517,1.19683 -0.26517,1.83467v43c0,0.63783 0.11108,1.24342 0.26517,1.83467l23.33467,-23.33467zM86,96.78225c-5.16,0 -10.29492,-1.94217 -14.2975,-5.75125l-23.3705,23.3705c0.59125,0.15408 1.19683,0.26517 1.83467,0.26517h71.66667c0.63783,0 1.24342,-0.11108 1.83467,-0.26517l-23.3705,-23.3705c-4.00258,3.80908 -9.1375,5.75125 -14.2975,5.75125z" fill="#f9f9f9"></path></g></g></svg>