<svg version="1.1"
      xmlns="http://www.w3.org/2000/svg"
      xmlns:xlink="http://www.w3.org/1999/xlink"  id="snapshot-08736" width="250" height="250" viewBox="0 0 250 250"><desc>This image was made on Patterninja.com</desc><defs>
<!-- image 60850 -->
<g id="transformed-60850" data-image="60850" transform="translate(-125, -125) rotate(0, 125, 125)"><g><svg version="1.1" width="250px" height="250px" viewBox="0 0 250 250"><g id="original-60850"><svg xmlns="http://www.w3.org/2000/svg" version="1.1" viewBox="0 0 256 256" xmlns:xlink="http://www.w3.org/1999/xlink" preserveAspectRatio="xMidYMid meet">
  <path d="M114.7 8C88 11.1 62.9 23.2 43.4 42.5.5 85-4.1 152.5 32.5 201.1c17.6 23.4 42.8 39.1 73 45.5 9.9 2.1 32.1 2.3 42.5.5 57.9-10.2 100-60.1 100-118.4 0-14.4-1.9-26.6-6-38.9-11.9-35.4-40.4-64.4-74.5-75.7-17.7-5.8-36.2-8-52.8-6.1zM77.8 127.5c6.6 1.4 13.6 2.5 15.6 2.5 6.6 0 7 .8 3 5.7-2 2.4-3.4 4.6-3.2 4.8.2.3 4-1.8 8.3-4.5 7.9-5 9.5-5.7 9.5-4.3 0 .5-1.1 5-2.5 10.2-1.4 5.2-2.4 9.5-2.2 9.7.2.2 3.2-3.7 6.6-8.6l6.4-9 4.6 3.9c2.5 2.1 5.5 4.9 6.6 6.1 4.9 5.5 5.5 4.2 2-4.1-1.9-4.4-3.3-8.5-2.9-9 .3-.5 2.9-.9 5.8-.9s11.3-1.1 18.6-2.5c15.5-2.9 24.1-3.2 26.4-.9 4.6 4.6-.8 17.8-11.9 29-9 9.1-14.6 11.9-24 11.9-6.6 0-7.4-.2-13.3-4.3-11.3-7.7-19.3-7.9-29.1-.8-6.1 4.4-11.2 6-17.6 5.3-7.5-.8-13-3.9-21.1-12.1-11.1-11.3-16.2-23.8-11.7-28.8 2.3-2.6 11.3-2.4 26.1.7zm134.3 19.2c7.1 9.6 8.1 11.2 7.4 12.2-1.2 2.1-3 1.1-8.7-5l-5.7-6.1 2.4 6.7c1.2 3.6 3.2 7.6 4.2 8.8 2.9 3.2 3.4 4.3 2.7 6.1-.9 2.4-2.7 1.9-6-1.5-3.5-3.6-9.8-7.9-11.7-7.9-.7 0-2.4-1.1-3.7-2.5l-2.4-2.5 2.2-2.3c1.9-1.8 2.5-2 4.2-.9 2.7 1.7 3.2 1.5 2.5-.8-.8-2.6 4.1-8.8 7.1-8.9 1.3-.1 3.2 1.5 5.5 4.6zm-13.7 18.8c4.7 4.7 8.6 9.3 8.6 10.1 0 2.5-2.8 2.7-5.9.5l-3-2.1-.6 2c-.4 1.2-.2 2.7.4 3.4 2.5 3-1.6 6.1-4.7 3.6-.9-.7-.9-.7-.2.2 1.8 2.1 1.1 3.6-3.2 6.7-3.9 2.9-4.3 3-5.9 1.5-1-.9-2.3-4-3-6.9-1.7-7.4-2.3-8.3-4.7-6.2-1 .9-2.4 1.7-3 1.7-1.3 0 1.9 5.4 6.1 10.5 2.9 3.5 3.5 6.5 1.3 6.5-2.1 0-8.9-3-11-4.8-1.2-1.1-.7.2 1.3 3.4 5.8 9.5 3.2 11.3-4.8 3.3-6.4-6.4-10.1-11.1-10.1-13.1 0-.8.6-2.2 1.3-3.3 1.2-1.5 1.9-1.6 4.5-.7 3.4 1.2 4.2.3 1.7-1.8-2.1-1.8-1.9-2.9 1-4.2 2.2-1 2.9-.8 5.3 1.3l2.7 2.4-2.4-2.8-2.5-2.7 5-4.5c2.7-2.4 5.2-4.4 5.5-4.5 1.4-.1 6.2 9 7.2 13.7.6 2.9 1.4 5.3 1.8 5.3.3 0 1.4-.8 2.3-1.9 1.6-1.7 1.6-2.1-.6-5.7-1.3-2.1-3.3-6.1-4.4-8.8l-2.2-5 2.1-2.8c1.1-1.5 2.8-2.8 3.8-2.8.9 0 5.6 3.8 10.3 8.5zm25-5.6c1 1.6-.5 4.1-2.5 4.1-2.1 0-2.5-2-.7-3.8 1.4-1.4 2.5-1.5 3.2-.3zm-63.3 36.8c4.9 4.8 8.9 9.3 8.9 10 0 2.2-2.8 2.6-5.6.8-3.4-2.2-5.3-.7-3.6 2.9.8 1.8.8 2.8-.3 4.3-1.3 1.7-1.5 1.7-4.3-1-3.2-3.1-10.2-16.3-10.2-19.4 0-2.1 3.4-6.3 5.2-6.3.6 0 5 3.9 9.9 8.7zm-15.2 5.9c2.2 2.4 3 4.2 2.6 5.5-.4 1.3-.2 1.9.8 1.9 2.2 0 4.7 3.4 5.2 6.9.3 2.5-.3 3.7-2.8 6.1-1.8 1.6-3.7 3-4.3 3-1.5 0-12.2-10.6-14.6-14.5-2.5-4.2-2.3-6.2 1.4-9.6 4.4-4 7.8-3.8 11.7.7z" fill="rgba(0, 0, 0, 1)" stroke="none"/>
  <path d="M69 129.9c1.5 2.9.6 5.1-2.1 5.1-1.2 0-2 .2-1.8.5.7.6 22.9 8.5 22.9 8.1 0-.3-13.8-11.2-18.3-14.5-1.8-1.3-1.8-1.2-.7.8z" fill="rgba(0, 0, 0, 1)" stroke="none"/>
  <path d="M152.1 136.6c-5.2 4.1-9 7.4-8.5 7.4s5.5-1.7 11.2-3.7c9.8-3.6 10.1-3.8 7.7-5.1-2.1-1.1-2.4-1.6-1.4-3.3.6-1.2.9-2.2.7-2.4-.2-.2-4.5 3-9.7 7.1z" fill="rgba(0, 0, 0, 1)" stroke="none"/>
  <path d="M70 143.5c0 6.9 7.3 12.6 13.5 10.5 1.9-.6 3.5-1.5 3.5-2 0-1.6-5.2-7.1-8.1-8.5-3.8-2-8.9-2-8.9 0z" fill="rgba(0, 0, 0, 1)" stroke="none"/>
  <path d="M152.4 143.9c-3.1 1.9-7.4 6.6-7.4 8.2 0 .4 1.6 1.3 3.5 1.9 2.8.9 4 .8 6.9-.5 3.3-1.6 6.6-6.5 6.6-9.9 0-2.3-5.7-2.1-9.6.3z" fill="rgba(0, 0, 0, 1)" stroke="none"/>
  <path d="M190 166.6c0 1.5 2.7 5 3.4 4.3.4-.3-.2-1.7-1.3-3s-2-1.9-2.1-1.3z" fill="rgba(0, 0, 0, 1)" stroke="none"/>
  <path d="M152 197.3c0 1.7 2.1 5.7 3 5.7 1.7 0 1.1-2.6-1-4.5-1.1-1-2-1.5-2-1.2z" fill="rgba(0, 0, 0, 1)" stroke="none"/>
  <path d="M139.5 209c.3.5.8 1 1.1 1 .2 0 .4-.5.4-1 0-.6-.5-1-1.1-1-.5 0-.7.4-.4 1z" fill="rgba(0, 0, 0, 1)" stroke="none"/>
</svg>
</g></svg></g></g>
<!-- /image 60850 -->
</defs><rect x="0" y="0" width="250" height="250" fill="rgba(196, 63, 63, 1)"></rect><use xlink:href="#transformed-60850" transform="translate(-250, -250)"></use><use xlink:href="#transformed-60850" transform="translate(0, -250)"></use><use xlink:href="#transformed-60850" transform="translate(250, -250)"></use><use xlink:href="#transformed-60850" transform="translate(-250, 0)"></use><use xlink:href="#transformed-60850" transform="translate(0, 0)"></use><use xlink:href="#transformed-60850" transform="translate(250, 0)"></use><use xlink:href="#transformed-60850" transform="translate(-250, 250)"></use><use xlink:href="#transformed-60850" transform="translate(0, 250)"></use><use xlink:href="#transformed-60850" transform="translate(250, 250)"></use></svg>