<svg version="1.1" xmlns="http://www.w3.org/2000/svg" xmlns:xlink="http://www.w3.org/1999/xlink" viewBox="0 0 172 172"><defs><linearGradient x1="85.91758" y1="22.06975" x2="85.91758" y2="150.66483" gradientUnits="userSpaceOnUse" id="color-1"><stop offset="0" stop-color="#000000"></stop><stop offset="1" stop-color="#cccccc"></stop></linearGradient></defs><g fill="none" fill-rule="none" stroke="none" stroke-width="1" stroke-linecap="butt" stroke-linejoin="miter" stroke-miterlimit="10" stroke-dasharray="" stroke-dashoffset="0" font-family="none" font-weight="none" font-size="none" text-anchor="none" style="mix-blend-mode: normal"><path d="M0,172v-172h172v172z" fill="none" fill-rule="nonzero"></path><g><path d="M143.34767,150.38892l-114.56992,0.11108c-3.93808,0.00358 -7.16308,-3.21425 -7.16667,-7.15233l-0.11108,-114.56992c-0.00358,-3.93808 3.21425,-7.16308 7.15233,-7.16667l114.56992,-0.11108c3.93808,-0.00358 7.16308,3.21425 7.16667,7.15233l0.11108,114.56992c0.00358,3.93808 -3.21425,7.16308 -7.15233,7.16667z" fill="url(#color-1)" fill-rule="nonzero"></path><path d="M104.662,73.84175c5.64733,4.03483 12.56675,6.407 20.038,6.407v-14.37275c-1.41542,0 -2.82367,-0.14692 -4.20683,-0.44075v11.31258c-7.47125,0 -14.38708,-2.37575 -20.038,-6.407v29.326c0,14.67017 -11.90025,26.56325 -26.57758,26.56325c-5.47533,0 -10.56725,-1.6555 -14.79558,-4.4935c4.82675,4.93067 11.55625,7.99083 19.00242,7.99083c14.67733,0 26.57758,-11.89308 26.57758,-26.56325v-29.32242zM109.85425,59.34358c-2.88458,-3.14975 -4.78017,-7.224 -5.19225,-11.72825v-1.849h-3.98825c1.00333,5.72258 4.429,10.61383 9.1805,13.57725zM68.36642,110.48133c-1.6125,-2.11417 -2.48325,-4.69775 -2.47967,-7.35658c0,-6.71158 5.44308,-12.15108 12.15825,-12.15108c1.25058,0 2.494,0.18992 3.68725,0.56975v-14.69167c-1.39392,-0.18992 -2.79858,-0.27233 -4.20683,-0.24367v11.43442c-1.19325,-0.37983 -2.43667,-0.56975 -3.69083,-0.56975c-6.71517,0 -12.15825,5.4395 -12.15825,12.15108c0.00358,4.74792 2.72333,8.858 6.69008,10.8575z" fill="#ec407a" fill-rule="evenodd"></path><path d="M100.45517,70.34083c5.64733,4.03483 12.56675,6.407 20.038,6.407v-11.31258c-4.171,-0.88867 -7.86183,-3.06733 -10.63892,-6.09525c-4.7515,-2.96342 -8.17358,-7.85108 -9.17692,-13.57367h-10.47408v57.39783c-0.02508,6.69008 -5.45742,12.10808 -12.15825,12.10808c-3.94883,0 -7.45692,-1.88125 -9.67858,-4.7945c-3.96675,-1.9995 -6.6865,-6.10958 -6.6865,-10.85392c0,-6.71158 5.44308,-12.15108 12.15825,-12.15108c1.28642,0 2.52625,0.20067 3.69083,0.56975v-11.43083c-14.41933,0.29742 -26.015,12.07225 -26.015,26.55608c0,7.23117 2.88817,13.78508 7.57517,18.57242c4.22833,2.838 9.32025,4.4935 14.79558,4.4935c14.67733,0 26.57758,-11.89308 26.57758,-26.56325l-0.00717,-29.32958z" fill="#ffffff" fill-rule="evenodd"></path><path d="M120.49317,65.43883v-3.06017c-3.7625,0.00717 -7.44617,-1.04633 -10.63892,-3.03867c2.82367,3.09242 6.54317,5.2245 10.63892,6.09883zM100.67375,45.76633c-0.09675,-0.54825 -0.16842,-1.0965 -0.21858,-1.65192v-1.849h-14.46233v57.40142c-0.0215,6.69008 -5.45742,12.10808 -12.15825,12.10808c-1.96725,0 -3.82342,-0.46583 -5.46817,-1.29717c2.22167,2.91325 5.72975,4.7945 9.67858,4.7945c6.70083,0 12.13317,-5.418 12.15825,-12.10808v-57.39783zM77.52542,76.61167v-3.25725c-1.20758,-0.16483 -2.42592,-0.24725 -3.64783,-0.24725c-14.68092,0 -26.57758,11.89308 -26.57758,26.56325c0,9.19842 4.67625,17.30392 11.782,22.06975c-4.687,-4.78733 -7.57517,-11.34125 -7.57517,-18.57242c0,-14.48383 11.59925,-26.25867 26.01858,-26.55608z" fill="#81d4fa" fill-rule="evenodd"></path></g></g></svg>