<svg version="1.1" xmlns="http://www.w3.org/2000/svg" xmlns:xlink="http://www.w3.org/1999/xlink" viewBox="0 0 172 172"><g fill="none" fill-rule="nonzero" stroke="none" stroke-width="1" stroke-linecap="butt" stroke-linejoin="miter" stroke-miterlimit="10" stroke-dasharray="" stroke-dashoffset="0" font-family="none" font-weight="none" font-size="none" text-anchor="none" style="mix-blend-mode: normal"><path d="M0,172v-172h172v172z" fill="none"></path><g><path d="M118.60833,75.25l-5.73333,21.5l-13.25833,-7.525l0.71667,18.275h-17.91667l14.33333,14.33333l-10.75,10.75h17.91667v25.08333l17.91667,-14.33333l10.75,17.91667v-21.5l21.5,7.16667l-14.33333,-21.14167l17.91667,-11.10833l-21.5,-3.58333l7.16667,-17.91667l-17.91667,7.16667z" fill="#fdc00a"></path><path d="M116.45833,111.08333l1.79167,-7.16667l3.94167,7.16667l6.80833,-5.375l-1.43333,8.95833l12.18333,3.58333l-10.75,5.375l7.16667,8.95833l-10.75,-2.15v5.73333l-5.73333,-5.73333l-8.6,9.31667l2.15,-12.54167l-9.31667,-1.79167l6.09167,-6.45l-9.675,-7.88333l10.75,1.79167v-5.375z" fill="#ffffff"></path><path d="M121.83333,125.41667c-21.14167,0 -28.66667,-13.61667 -28.66667,-25.08333c0,-15.05 10.03333,-22.575 19.70833,-28.30833c10.03333,-5.73333 23.29167,-15.05 23.29167,-29.025c0,-13.975 -11.10833,-25.08333 -25.08333,-25.08333c-9.31667,0 -18.63333,1.79167 -25.44167,15.76667c-4.65833,9.31667 -7.88333,17.55833 -7.88333,17.55833l-6.80833,-2.50833c0,-0.35833 3.225,-8.6 8.24167,-18.275c8.6,-17.55833 21.5,-19.70833 31.89167,-19.70833c17.91667,0 32.25,14.33333 32.25,32.25c0,20.06667 -19.70833,31.175 -26.875,35.475c-11.46667,6.45 -16.125,12.54167 -16.125,21.85833c0,4.3 1.43333,17.91667 21.5,17.91667z" fill="#3e2723"></path><path d="M94.6,43l-28.30833,-10.39167c-1.79167,-0.71667 -3.94167,0.35833 -4.65833,2.15l-36.19167,100.33333c-0.71667,1.79167 0.35833,3.94167 2.15,4.65833l28.30833,10.39167c1.79167,0.71667 3.94167,-0.35833 4.65833,-2.15l36.19167,-100.69167c0.35833,-1.43333 -0.35833,-3.58333 -2.15,-4.3z" fill="#d01414"></path><path d="M65.93333,32.60833c-1.79167,-0.71667 -3.94167,0.35833 -4.65833,2.15l-35.83333,100.33333c-0.71667,1.79167 0.35833,3.94167 2.15,4.65833l7.16667,2.86667l38.7,-107.5z" fill="#d01414"></path></g></g></svg>